<?xml version="1.0"?>
<svg xmlns="http://www.w3.org/2000/svg" xmlns:xlink="http://www.w3.org/1999/xlink" xmlns:svgjs="http://svgjs.com/svgjs" version="1.1" width="512" height="512" x="0" y="0" viewBox="0 0 512 512" style="enable-background:new 0 0 512 512" xml:space="preserve" class=""><g><g xmlns="http://www.w3.org/2000/svg"><path d="m336.203 204.466v-19.579c0-7.462-6.071-13.533-13.533-13.533h-69.219c-7.462 0-13.533 6.071-13.533 13.533v19.579c0 7.462 6.071 13.533 13.533 13.533h69.219c7.461 0 13.533-6.071 13.533-13.533zm-15-1.467h-66.285v-16.646h66.285z" fill="#00587a" data-original="#000000" style=""/><path d="m197.163 330.757c0 5.29 3.583 8.386 7.61 8.386h.028c.466-.002 11.476-.044 15.878-.121 16.76-.294 28.924-14.855 28.924-34.626 0-20.783-11.858-34.747-29.506-34.747h-15.434c-1.992 0-3.901.792-5.308 2.202-1.407 1.409-2.196 3.32-2.192 5.312v.041.002zm22.934-46.108c13.46 0 14.506 15.114 14.506 19.747 0 13.388-7.125 19.505-14.187 19.628-1.89.033-5.126.061-8.169.08-.02-6.398-.06-32.793-.071-39.455z" fill="#00587a" data-original="#000000" style=""/><path d="m169.902 324.973c-5.448 0-10.686-2.19-14.011-5.86-2.781-3.069-7.524-3.303-10.594-.521-3.07 2.781-3.303 7.524-.522 10.594 6.212 6.855 15.371 10.788 25.127 10.788 12.067 0 22.204-7.718 24.103-18.353 1.432-8.021-2.185-18.49-16.631-23.818-6.815-2.515-13.166-5.25-15.202-6.14-1.289-1.076-1.243-2.554-1.154-3.174.129-.9.791-3.102 4.129-4.107 7.647-2.305 14.789 3.308 15.012 3.485 3.17 2.628 7.872 2.208 10.526-.949 2.665-3.171 2.255-7.901-.915-10.567-.539-.452-13.36-11.027-28.949-6.332-7.933 2.391-13.547 8.651-14.65 16.339-1.037 7.226 2.095 14.176 8.175 18.14.332.217.68.406 1.041.567.325.146 8.073 3.593 16.796 6.811 1.832.677 7.756 3.187 7.056 7.11-.526 2.942-4.162 5.987-9.337 5.987z" fill="#00587a" data-original="#000000" style=""/><path d="m115.573 324.973c-5.448 0-10.686-2.19-14.011-5.86-2.782-3.069-7.524-3.303-10.594-.521-3.07 2.781-3.303 7.524-.522 10.594 6.212 6.855 15.371 10.788 25.127 10.788 12.068 0 22.205-7.718 24.103-18.353 1.432-8.021-2.185-18.49-16.631-23.818-6.815-2.515-13.166-5.25-15.202-6.14-1.289-1.076-1.243-2.554-1.154-3.174.129-.9.791-3.102 4.129-4.107 7.646-2.305 14.789 3.308 15.012 3.485 3.171 2.628 7.872 2.208 10.526-.949 2.665-3.171 2.255-7.901-.915-10.567-.539-.452-13.361-11.027-28.949-6.332-7.933 2.391-13.547 8.651-14.65 16.339-1.037 7.226 2.095 14.176 8.175 18.14.332.217.68.406 1.041.567.325.146 8.073 3.593 16.796 6.811 1.832.677 7.756 3.187 7.056 7.11-.526 2.942-4.162 5.987-9.337 5.987z" fill="#00587a" data-original="#000000" style=""/><path d="m129.231 370.689h241.492c4.143 0 7.5-3.357 7.5-7.5v-214.378c0-4.143-3.357-7.5-7.5-7.5h-315.053c-4.142 0-7.5 3.357-7.5 7.5v214.378c0 4.143 3.358 7.5 7.5 7.5h43.574c4.142 0 7.5-3.357 7.5-7.5s-3.358-7.5-7.5-7.5h-36.074v-123.791h69.599c57.454 0 114.295 14.945 164.38 43.221 1.166.658 2.432.97 3.681.97 2.617 0 5.159-1.372 6.538-3.813 2.036-3.607.763-8.183-2.844-10.219-52.331-29.543-111.723-45.158-171.755-45.158h-69.599v-60.587h300.053v147.397c-10.337-9.068-21.225-17.564-32.541-25.342-3.415-2.35-8.083-1.482-10.429 1.933-2.347 3.413-1.481 8.082 1.933 10.429 14.512 9.975 28.295 21.174 41.037 33.293v31.669h-233.992c-4.142 0-7.5 3.357-7.5 7.5s3.358 7.498 7.5 7.498z" fill="#00587a" data-original="#000000" style=""/><path d="m489.438 92.061h-397.279c-4.142 0-7.5 3.357-7.5 7.5s3.358 7.5 7.5 7.5h397.279c4.17 0 7.562 3.392 7.562 7.562v29.399h-27.128c-7.849 0-14.233 6.385-14.233 14.233v195.489c0 7.849 6.385 14.233 14.233 14.233h27.128v29.399c0 4.169-3.392 7.562-7.562 7.562h-466.876c-4.169 0-7.562-3.393-7.562-7.562v-282.754c0-4.17 3.393-7.562 7.562-7.562h39.61c4.142 0 7.5-3.357 7.5-7.5s-3.358-7.5-7.5-7.5h-39.61c-12.441.001-22.562 10.122-22.562 22.562v282.755c0 12.44 10.121 22.562 22.562 22.562h466.876c12.44 0 22.562-10.121 22.562-22.562v-282.755c0-12.44-10.122-22.561-22.562-22.561zm-18.8 171.364v-14.851h26.362v14.851zm26.362 15v14.852h-26.361v-14.852zm-26.362-44.851v-14.851h26.362v14.851zm0-29.85v-14.852h26.362v14.852zm0 104.553h26.362v14.851h-26.361v-14.851zm26.362-149.255v14.851h-26.361v-14.851zm-26.362 193.956v-14.851h26.362v14.851z" fill="#00587a" data-original="#000000" style=""/></g></g></svg>
